<svg width="3000" height="1096" viewBox="0 0 3000 1096" fill="none" xmlns="http://www.w3.org/2000/svg">
<path d="M2999.2 9.78197H3000V293.743C3000 300.804 2999.71 307.804 2999.2 314.737V499.409C2999.2 611.729 2950.02 687.999 2886 734.47C2824.9 778.818 2753.33 794.153 2704.65 795.189C2704.23 795.198 2703.8 795.199 2703.37 795.199H837.99L554.776 1078.38C537.568 1095.58 511.695 1100.73 489.211 1091.42C466.728 1082.11 452.066 1060.17 452.066 1035.84V770.132H161.252V649.811H512.235C545.463 649.811 572.401 676.748 572.403 709.971V890.61L770.536 692.503L772.69 690.437C783.727 680.446 798.118 674.878 813.077 674.878H2702.34C2732.22 674.19 2778.33 663.947 2815.31 637.101C2844.93 615.605 2870.92 582.152 2877.33 526.63C2832.02 558.884 2776.25 576.735 2716 576.735C2654.39 576.735 2596.63 557.483 2549.46 522.831C2479.18 471.815 2432.97 388.075 2432.97 293.743V9.78197H2549.46V293.743C2549.46 385.187 2624.55 460.271 2716 460.272C2796.34 460.272 2862.84 403.536 2878.86 328.641V8.09779H2999.2V9.78197Z" fill="url(#paint0_linear_513_4360)"/>
<path fill-rule="evenodd" clip-rule="evenodd" d="M283.029 0C345.604 0 403.37 20.2137 449.579 53.9037C520.818 105.882 567.027 189.629 567.027 283.961V567.912H449.579V513.049C403.37 547.702 345.604 567.912 283.029 567.912C221.418 567.912 163.656 547.701 117.448 513.049C46.2097 462.034 0.00101805 378.291 0 283.961C0 189.63 46.2088 105.882 117.448 53.9037C163.656 20.2144 221.418 0.00080741 283.029 0ZM283.029 117.433C191.574 117.435 117.448 191.556 117.448 283.961C117.45 375.403 191.575 450.478 283.029 450.48C375.446 450.48 449.577 375.404 449.579 283.961C449.579 191.554 375.447 117.433 283.029 117.433Z" fill="url(#paint1_linear_513_4360)"/>
<path d="M889.443 0.959593C951.053 0.960246 1008.81 20.2128 1055.98 54.8633C1126.26 105.879 1172.47 189.629 1172.47 283.961V567.912H1055.98V283.961C1055.98 192.518 980.898 117.434 889.443 117.433C797.024 117.433 722.893 192.517 722.893 283.961V567.912H605.445V283.961C605.445 189.629 651.653 105.879 722.893 54.8633C769.102 20.2112 826.868 0.959593 889.443 0.959593Z" fill="url(#paint2_linear_513_4360)"/>
<path fill-rule="evenodd" clip-rule="evenodd" d="M1495.83 0.959593C1651.78 0.961255 1778.86 128.026 1778.86 283.961C1778.86 440.858 1651.78 567.911 1495.83 567.912C1338.91 567.912 1211.83 440.859 1211.83 283.961C1211.83 128.025 1338.91 0.959593 1495.83 0.959593ZM1495.83 117.433C1403.41 117.433 1329.28 192.517 1329.28 283.961C1329.28 376.366 1403.41 450.48 1495.83 450.48C1587.28 450.478 1662.37 376.365 1662.37 283.961C1662.37 192.518 1587.28 117.434 1495.83 117.433Z" fill="url(#paint3_linear_513_4360)"/>
<path d="M2101.27 0.959593C2162.88 0.96023 2220.64 20.2128 2267.81 54.8633C2338.09 105.879 2384.3 189.629 2384.3 283.961V567.912H2267.81V283.961C2267.81 192.518 2192.73 117.434 2101.27 117.433C2008.85 117.433 1934.72 192.517 1934.72 283.961V567.912H1817.27V283.961C1817.27 189.629 1863.48 105.879 1934.72 54.8633C1980.93 20.2112 2038.7 0.959593 2101.27 0.959593Z" fill="url(#paint4_linear_513_4360)"/>
<defs>
<linearGradient id="paint0_linear_513_4360" x1="1500" y1="3.31878e-05" x2="1093.15" y2="957.594" gradientUnits="userSpaceOnUse">
<stop stop-color="#3FA9F5"/>
<stop offset="0.967549" stop-color="#61C5F9"/>
</linearGradient>
<linearGradient id="paint1_linear_513_4360" x1="1500" y1="3.31878e-05" x2="1093.15" y2="957.594" gradientUnits="userSpaceOnUse">
<stop stop-color="#3FA9F5"/>
<stop offset="0.967549" stop-color="#61C5F9"/>
</linearGradient>
<linearGradient id="paint2_linear_513_4360" x1="1500" y1="3.31878e-05" x2="1093.15" y2="957.594" gradientUnits="userSpaceOnUse">
<stop stop-color="#3FA9F5"/>
<stop offset="0.967549" stop-color="#61C5F9"/>
</linearGradient>
<linearGradient id="paint3_linear_513_4360" x1="1500" y1="3.31878e-05" x2="1093.15" y2="957.594" gradientUnits="userSpaceOnUse">
<stop stop-color="#3FA9F5"/>
<stop offset="0.967549" stop-color="#61C5F9"/>
</linearGradient>
<linearGradient id="paint4_linear_513_4360" x1="1500" y1="3.31878e-05" x2="1093.15" y2="957.594" gradientUnits="userSpaceOnUse">
<stop stop-color="#3FA9F5"/>
<stop offset="0.967549" stop-color="#61C5F9"/>
</linearGradient>
</defs>
</svg>
